<?xml version="1.0" encoding="UTF-8"?>
<svg id="Layer_1" xmlns="http://www.w3.org/2000/svg" viewBox="0 0 540 318.98">
  <defs>
    <style>
      .cls-1 {
        fill: #fff;
      }
    </style>
  </defs>
  <g id="_x33_9fLE8.tif">
    <g>
      <path class="cls-1" d="M245.99,318.98c-12.06-1.88-24.21-3.3-36.16-5.71-39.8-8.05-76.64-23.07-107.66-49.75-11.78-10.13-21.84-22.31-32.17-34.02-2.88-3.26-6.8-8.13-2.3-12.75,4.84-4.97,9.19-.27,13.18,2.24,15.67,9.87,30.61,21.09,46.95,29.67,30.43,15.97,63.52,23.99,97.43,28.94,26.63,3.89,53.44,4.77,80.13,3.09,43.43-2.74,85.58-11.72,124.89-31.41,2.39-1.2,4.82-3.01,7.3-3.15,2.9-.15,6.85.37,8.5,2.23,1.27,1.43.74,6.42-.83,8.03-6.87,7.07-13.8,14.38-21.83,19.99-29.03,20.24-61.68,31.86-96.34,38.09-10.13,1.82-20.37,3.01-30.56,4.49h-50.53Z"/>
      <path class="cls-1" d="M540,114.85c-2.8.45-5.6,1.26-8.4,1.28-18.17.12-36.33.06-54.5.06-2.23,0-4.46,0-7.21,0-.06,9.29,1.79,17.17,6.95,23.89,6.78,8.83,25.1,7.09,29.21-4.43,3.39-9.49,3.87-9.31,13.77-7.02,4.28.99,8.55,2.07,12.86,2.94,4.46.9,5.46,3.19,3.97,7.45-6.32,18.11-24.22,31.45-43.42,32.15-25.64.92-45.94-12.88-53.26-38.2-6.94-24-5.96-47.67,9.17-69.03,10.96-15.46,26.21-22.95,44.98-21.01,19.62,2.03,32.82,13.6,40.22,31.59,2.45,5.96,3.81,12.36,5.67,18.56v21.79ZM488.52,95.14v.02c1.53,0,3.06.11,4.58-.02,4.63-.41,9.25-.9,13.87-1.37-1.55-5.96-1.97-12.56-4.9-17.76-6.18-10.97-20.13-10.52-26.4.46-2.32,4.07-3.59,8.77-5.06,13.28-1.14,3.52.24,5.47,4.17,5.4,4.58-.09,9.16-.02,13.74-.02Z"/>
      <path class="cls-1" d="M291.02,61.8c6.9-12.74,17.09-19.36,30.94-19.08,13.74.28,23.6,7.65,29.79,20.38,4.02-4.27,7.11-7.87,10.53-11.12,16.8-15.97,42.07-11.56,52.66,9.04,5.32,10.34,6.46,21.59,6.65,32.85.37,21.58.13,43.18.1,64.77-.01,8.07-1.14,9.11-9.42,9.15-5.17.02-10.34-.19-15.5.05-5.46.25-7.47-2.11-7.44-7.48.15-21.78.19-43.57-.05-65.34-.05-4.69-.97-9.5-2.3-14.01-1.67-5.67-6.07-8.86-11.98-9.1-5.86-.24-11.36,1.54-13.84,7.28-1.92,4.44-3.51,9.41-3.6,14.18-.4,21.2-.18,42.41-.22,63.62-.02,9.91-.94,10.79-10.79,10.81-4.59,0-9.19.04-13.78-.01-6.74-.08-7.68-.95-7.7-7.64-.05-21.21.05-42.42-.08-63.63-.03-4.17-.5-8.4-1.35-12.48-1.54-7.4-6.6-11.82-13.3-12.23-7.02-.43-13.83,3.85-15.58,11.05-1.56,6.43-2.41,13.18-2.52,19.8-.33,18.72-.1,37.45-.12,56.17,0,8.51-.49,8.95-9.22,8.98-4.98.01-9.95.05-14.93-.01-6.74-.09-8.15-1.39-8.2-8.05-.09-13.57-.03-27.13-.03-40.7,0-21.4-.03-42.8.02-64.2.02-7.81,1.19-8.91,9.02-8.97,4.21-.03,8.42.09,12.63-.01,4.41-.11,6.68,1.92,7.37,6.25.51,3.27,1.48,6.47,2.24,9.7Z"/>
      <path class="cls-1" d="M31.44,152.43c0,14.48,0,28.96,0,43.45,0,10.51-.27,10.77-11.07,10.78-4.59,0-9.18-.03-13.77-.03C2.17,206.62,0,204.64,0,199.99c.06-49.26.06-98.53,0-147.79,0-4.71,2.24-6.49,6.72-6.37,4.39.12,8.81.27,13.19-.05,5.2-.37,7.86,1.88,8.7,6.86.53,3.12,1.33,6.2,2.21,10.24,1.36-1.62,2.13-2.36,2.71-3.23,14.94-22.5,43.33-22.85,58.81-.63,7.64,10.97,11.02,23.51,12.01,36.59,1.61,21.1.29,41.93-13.04,59.58-4.17,5.52-10.4,10.43-16.75,13.19-15.42,6.71-29.23,1.71-39.4-12.63-.86-1.22-1.66-2.48-2.49-3.72l-1.25.4ZM72.46,108.66c-1.37-8.92-1.76-16.06-3.73-22.74-1.39-4.72-4-9.91-7.67-12.97-8.34-6.96-20.21-3.08-25.07,7.47-5.56,12.06-5.53,24.9-3.99,37.67.69,5.76,2.57,11.58,5.02,16.86,2.71,5.85,7.93,9.59,14.67,9.28,6.98-.32,12.84-3.66,14.92-10.61,2.59-8.67,4.18-17.64,5.86-24.96Z"/>
      <path class="cls-1" d="M152.91,61.86c4.78-9.97,12-16.82,23.1-18.69,1.5-.25,3.02-.52,4.54-.56,16.03-.43,18.98,3.16,15.21,18.41-.82,3.34-1.61,6.68-2.49,10-1.66,6.34-2.63,6.74-8.82,4.94-4.73-1.38-9.55-2.93-14.41-3.3-7.22-.54-12.19,2.89-14.29,9.86-1.52,5.04-2.47,10.44-2.54,15.7-.29,20.42-.1,40.85-.13,61.28-.01,7.46-.81,8.23-8.2,8.28-5.93.04-11.85-.07-17.78.02-4.24.06-6.4-1.72-6.4-6.11.03-36.65.03-73.3.02-109.95,0-4.06,2-5.91,6.02-5.87,4.97.05,9.95.17,14.91-.05,5.02-.23,7.36,2.16,8.04,6.89.43,2.96,1.19,5.87,1.8,8.8.48.12.95.24,1.43.35Z"/>
      <path class="cls-1" d="M207.96,106.88c0-17.75-.04-35.5.01-53.25.02-6.8.92-7.68,7.56-7.76,5.54-.07,11.09-.05,16.63,0,6.9.06,8.04,1.08,8.07,7.97.08,17.56.03,35.12.03,52.68,0,17.56.04,35.12-.02,52.68-.02,7.65-1.01,8.56-8.6,8.6-5.54.03-11.09-.19-16.63.05-5.22.23-7.15-2.04-7.11-7.14.14-17.94.06-35.88.05-53.82Z"/>
      <path class="cls-1" d="M444.82,229.19c-7.29,1.06-15.77,2.47-24.29,3.45-4.34.5-10,2.51-12.08-3.19-2.05-5.61,3.3-8.02,7.07-10.33,19.44-11.9,40.39-14.6,62.35-9.12,11,2.75,15.59,10.61,14.56,21.88-2.07,22.77-12.09,41.09-29.95,55.25-.75.59-1.47,1.49-2.31,1.65-3.33.61-7.48,2.42-9.9,1.12-4.05-2.18-1.65-6.39-.05-9.64,4.64-9.41,9.58-18.68,13.96-28.21,1.72-3.75,2.52-8,3.23-12.11.92-5.3-1.66-8.41-7.02-9.05-4.74-.57-9.49-1.04-15.57-1.7Z"/>
      <path class="cls-1" d="M205.39,18.07C205.4,7.16,212.76-.05,223.84,0c10.66.05,18.57,7.75,18.72,18.22.15,10.27-8.5,18.74-19.04,18.63-10.46-.11-18.14-8.06-18.13-18.78Z"/>
    </g>
  </g>
</svg>